<?xml version="1.0" encoding="UTF-8"?>
<svg width="210px" height="50px" viewBox="0 0 210 50" version="1.1" xmlns="http://www.w3.org/2000/svg" xmlns:xlink="http://www.w3.org/1999/xlink">
    <title>Logo Copy 11</title>
    <g id="Logo-Copy-11" stroke="none" fill="none" fill-rule="evenodd" stroke-width="1">
        <g id="Group" transform="translate(1, 1)" fill="#000000">
            <path d="M24,0 C37.254834,0 48,10.745166 48,24 C48,37.254834 37.254834,48 24,48 C10.745166,48 0,37.254834 0,24 C0,10.745166 10.745166,0 24,0 Z M24,3 C12.4020203,3 3,12.4020203 3,24 C3,35.5979797 12.4020203,45 24,45 C35.5979797,45 45,35.5979797 45,24 C45,12.4020203 35.5979797,3 24,3 Z" id="Oval" fill-rule="nonzero"></path>
            <path d="M24,6 C33.9411255,6 42,14.0588745 42,24 C42,33.9411255 33.9411255,42 24,42 C14.0588745,42 6,33.9411255 6,24 C6,14.0588745 14.0588745,6 24,6 Z M24,9 C15.7157288,9 9,15.7157288 9,24 C9,32.2842712 15.7157288,39 24,39 C32.2842712,39 39,32.2842712 39,24 C39,15.7157288 32.2842712,9 24,9 Z" id="Oval" fill-rule="nonzero"></path>
            <path d="M24,12 C30.627417,12 36,17.372583 36,24 C36,30.627417 30.627417,36 24,36 C17.372583,36 12,30.627417 12,24 C12,17.372583 17.372583,12 24,12 Z M24,15 C19.0294373,15 15,19.0294373 15,24 C15,28.9705627 19.0294373,33 24,33 C28.9705627,33 33,28.9705627 33,24 C33,19.0294373 28.9705627,15 24,15 Z" id="Oval" fill-rule="nonzero"></path>
        </g>
        <g id="THE-ONLY-CONSTANT" transform="translate(57, 1)" fill="#000000">
            <polygon id="Path" fill-rule="nonzero" points="6.148625 22 6.148625 6.532625 0.436625 6.532625 0.436625 2.4 16.340625 2.4 16.340625 6.532625 10.651375 6.532625 10.651375 22"></polygon>
            <path d="M30.8375747,22 L30.8375747,2.4 L35.3398872,2.4 L35.3398872,22 L30.8375747,22 Z M18.1815747,22 L18.1815747,2.3776875 L22.6838872,2.3776875 L22.6838872,22 L18.1815747,22 Z M21.3849497,14.0703125 L21.3849497,9.9376875 L33.2569497,9.9376875 L33.2569497,14.0703125 L21.3849497,14.0703125 Z" id="Shape" fill-rule="nonzero"></path>
            <polygon id="Path" fill-rule="nonzero" points="38.6479761 22 38.6479761 2.4 51.4102886 2.4 51.4102886 6.532625 43.1502886 6.532625 43.1502886 10.116625 50.0662886 10.116625 50.0662886 14.1376875 43.1502886 14.1376875 43.1502886 17.867375 51.5673511 17.867375 51.5673511 22"></polygon>
            <path d="M69.8814978,22.336 C67.8751228,22.336 66.0967582,21.9029479 64.5464041,21.0368438 C62.9960499,20.1707396 61.7812582,18.9772396 60.9020291,17.4563438 C60.0227999,15.9354479 59.5831853,14.1919375 59.5831853,12.2258125 C59.5831853,10.2410208 60.021852,8.48795833 60.8991853,6.966625 C61.7765186,5.44529167 62.9832895,4.25157292 64.5194978,3.38546875 C66.0557061,2.51936458 67.825977,2.0863125 69.8303103,2.0863125 C71.8346436,2.0863125 73.6061541,2.5203125 75.1448416,3.3883125 C76.6835291,4.2563125 77.8905916,5.45097917 78.7660291,6.9723125 C79.6414666,8.49364583 80.0791853,10.2436458 80.0791853,12.2223125 C80.0791853,14.1893125 79.6451853,15.933625 78.7771853,17.45525 C77.9091853,18.976875 76.7097061,20.1707396 75.1787478,21.0368438 C73.6477895,21.9029479 71.8820395,22.336 69.8814978,22.336 Z M69.8880603,18.203375 C70.9835603,18.203375 71.950727,17.9475833 72.7895603,17.436 C73.6283936,16.9244167 74.2839874,16.2193125 74.7563416,15.3206875 C75.2286957,14.4220625 75.4648728,13.3888333 75.4648728,12.221 C75.4648728,11.0534583 75.2230811,10.0182604 74.7394978,9.11540625 C74.2559145,8.21255208 73.5927374,7.50416667 72.7499666,6.99025 C71.9071957,6.47633333 70.933102,6.219375 69.8276853,6.219375 C68.7362686,6.219375 67.7664041,6.47589583 66.9180916,6.9889375 C66.0697791,7.50197917 65.4042686,8.209125 64.9215603,9.110375 C64.438852,10.011625 64.1974978,11.0477708 64.1974978,12.2188125 C64.1974978,13.3898542 64.4420603,14.42425 64.9311853,15.322 C65.4203103,16.21975 66.0913624,16.9244167 66.9443416,17.436 C67.7973207,17.9475833 68.7785603,18.203375 69.8880603,18.203375 Z" id="Shape" fill-rule="nonzero"></path>
            <polygon id="Path" fill-rule="nonzero" points="82.3231768 22 82.3231768 2.4 87.0494893 2.4 95.6625518 14.367375 95.6625518 2.4 100.164864 2.4 100.164864 22 95.6625518 22 86.8254893 9.7136875 86.8254893 22"></polygon>
            <polygon id="Path" fill-rule="nonzero" points="103.472777 22 103.472777 2.4 107.97509 2.4 107.97509 17.867375 116.324777 17.867375 116.324777 22"></polygon>
            <path d="M125.972166,13.936 L121.632166,13.04 L127.904166,2.4 L133.028166,2.4 L125.972166,13.936 Z M121.626478,22 L121.626478,12.592 L126.128791,12.592 L126.128791,22 L121.626478,22 Z M121.760791,13.936 L114.704791,2.4 L119.828791,2.4 L126.100791,13.04 L121.760791,13.936 Z" id="Shape" fill-rule="nonzero"></path>
            <path d="M10.7576875,46.336 C8.82014583,46.336 7.10747917,45.902 5.6196875,45.034 C4.13189583,44.166 2.96333333,42.9713333 2.114,41.45 C1.26466667,39.9286667 0.84,38.1786667 0.84,36.2 C0.84,34.2213333 1.26371875,32.4713333 2.11115625,30.95 C2.95859375,29.4286667 4.12526042,28.234 5.61115625,27.366 C7.09705208,26.498 8.806875,26.064 10.740625,26.064 C12.1706667,26.064 13.4764583,26.3132292 14.658,26.8116875 C15.8395417,27.3101458 16.8671563,28.0045312 17.7408438,28.8948438 C18.6145313,29.7851562 19.2847083,30.8164167 19.751375,31.988625 L15.512,33.428 C15.2244167,32.7746667 14.8464167,32.2043854 14.378,31.7171563 C13.9095833,31.2299271 13.3691979,30.8546979 12.7568438,30.5914687 C12.1444896,30.3282396 11.4724167,30.196625 10.740625,30.196625 C9.71395833,30.196625 8.80213542,30.4524167 8.00515625,30.964 C7.20817708,31.4755833 6.58379167,32.18025 6.132,33.078 C5.68020833,33.97575 5.4543125,35.0164167 5.4543125,36.2 C5.4543125,37.3722083 5.68392708,38.4119271 6.14315625,39.3191562 C6.60238542,40.2263854 7.23610417,40.9357187 8.0443125,41.4471563 C8.85252083,41.9585937 9.77929167,42.2143125 10.824625,42.2143125 C11.5899583,42.2143125 12.2712917,42.0752604 12.868625,41.7971563 C13.4659583,41.5190521 13.98775,41.1298958 14.434,40.6296875 C14.88025,40.1294792 15.2544583,39.5470208 15.556625,38.8823125 L19.796,40.3216875 C19.3404167,41.5049792 18.6768021,42.5511875 17.8051563,43.4603125 C16.9335104,44.3694375 15.8984583,45.076 14.7,45.58 C13.5015417,46.084 12.1874375,46.336 10.7576875,46.336 Z" id="Path" fill-rule="nonzero"></path>
            <path d="M30.9943091,46.336 C28.9879341,46.336 27.2095695,45.9029479 25.6592153,45.0368438 C24.1088612,44.1707396 22.8940695,42.9772396 22.0148403,41.4563438 C21.1356112,39.9354479 20.6959966,38.1919375 20.6959966,36.2258125 C20.6959966,34.2410208 21.1346632,32.4879583 22.0119966,30.966625 C22.8893299,29.4452917 24.0961007,28.2515729 25.6323091,27.3854688 C27.1685174,26.5193646 28.9387882,26.0863125 30.9431216,26.0863125 C32.9474549,26.0863125 34.7189653,26.5203125 36.2576528,27.3883125 C37.7963403,28.2563125 39.0034028,29.4509792 39.8788403,30.9723125 C40.7542778,32.4936458 41.1919966,34.2436458 41.1919966,36.2223125 C41.1919966,38.1893125 40.7579966,39.933625 39.8899966,41.45525 C39.0219966,42.976875 37.8225174,44.1707396 36.2915591,45.0368438 C34.7606007,45.9029479 32.9948507,46.336 30.9943091,46.336 Z M31.0008716,42.203375 C32.0963716,42.203375 33.0635382,41.9475833 33.9023716,41.436 C34.7412049,40.9244167 35.3967987,40.2193125 35.8691528,39.3206875 C36.341507,38.4220625 36.5776841,37.3888333 36.5776841,36.221 C36.5776841,35.0534583 36.3358924,34.0182604 35.8523091,33.1154062 C35.3687257,32.2125521 34.7055487,31.5041667 33.8627778,30.99025 C33.020007,30.4763333 32.0459132,30.219375 30.9404966,30.219375 C29.8490799,30.219375 28.8792153,30.4758958 28.0309028,30.9889375 C27.1825903,31.5019792 26.5170799,32.209125 26.0343716,33.110375 C25.5516632,34.011625 25.3103091,35.0477708 25.3103091,36.2188125 C25.3103091,37.3898542 25.5548716,38.42425 26.0439966,39.322 C26.5331216,40.21975 27.2041737,40.9244167 28.0571528,41.436 C28.910132,41.9475833 29.8913716,42.203375 31.0008716,42.203375 Z" id="Shape" fill-rule="nonzero"></path>
            <polygon id="Path" fill-rule="nonzero" points="43.435988 46 43.435988 26.4 48.1623005 26.4 56.775363 38.367375 56.775363 26.4 61.2776755 26.4 61.2776755 46 56.775363 46 47.9383005 33.7136875 47.9383005 46"></polygon>
            <path d="M71.2999009,46.336 C70.3479009,46.336 69.4379009,46.2118958 68.5699009,45.9636875 C67.7019009,45.7154792 66.9207446,45.3710938 66.2264321,44.9305312 C65.5321196,44.4899688 64.9600155,43.9915104 64.5101196,43.4351562 C64.0602238,42.8788021 63.77738,42.290875 63.6615884,41.671375 L68.1192759,40.4 C68.3170259,40.9489167 68.6735155,41.42025 69.1887446,41.814 C69.7039738,42.20775 70.35738,42.4196458 71.1489634,42.4496875 C71.910505,42.4645625 72.5469946,42.2862813 73.0584321,41.9148438 C73.5698696,41.5434062 73.8255884,41.0552292 73.8255884,40.4503125 C73.8255884,39.9874375 73.6445363,39.5777188 73.2824321,39.2211563 C72.920328,38.8645937 72.3975884,38.5986667 71.7142134,38.423375 L68.9649634,37.7176875 C67.9867134,37.4636458 67.1363592,37.0781354 66.4139009,36.5611563 C65.6914425,36.0441771 65.1323905,35.4067396 64.7367446,34.6488438 C64.3410988,33.8909479 64.1432759,33.0285625 64.1432759,32.0616875 C64.1432759,30.1725625 64.7667134,28.7006667 66.0135884,27.646 C67.2604634,26.5913333 69.0244634,26.064 71.3055884,26.064 C72.5486717,26.064 73.6406717,26.2347708 74.5815884,26.5763125 C75.522505,26.9178542 76.3224009,27.4255729 76.9812759,28.0994687 C77.6401509,28.7733646 78.1674842,29.6162083 78.5632759,30.628 L74.1335884,31.944 C73.9766717,31.44 73.6527759,30.9817187 73.1619009,30.5691562 C72.6710259,30.1565937 72.0335884,29.9503125 71.2495884,29.9503125 C70.4655884,29.9503125 69.854255,30.1295417 69.4155884,30.488 C68.9769217,30.8464583 68.7575884,31.356 68.7575884,32.016625 C68.7575884,32.490875 68.9330259,32.8801042 69.2839009,33.1843125 C69.6347759,33.4885208 70.122005,33.7190833 70.7455884,33.876 L73.5175884,34.576 C75.1080467,34.968 76.3447134,35.7025625 77.2275884,36.7796875 C78.1104634,37.8568125 78.5519009,39.0710208 78.5519009,40.4223125 C78.5519009,41.6505208 78.2662863,42.7061354 77.6950571,43.5891563 C77.123828,44.4721771 76.29688,45.1507396 75.2142134,45.6248437 C74.1315467,46.0989479 72.8267759,46.336 71.2999009,46.336 Z" id="Path" fill-rule="nonzero"></path>
            <polygon id="Path" fill-rule="nonzero" points="85.2254192 46 85.2254192 30.532625 79.5134192 30.532625 79.5134192 26.4 95.4174192 26.4 95.4174192 30.532625 89.7281692 30.532625 89.7281692 46"></polygon>
            <path d="M109.11899,46 L101.78299,26.4 L106.274365,26.4 L113.890365,46 L109.11899,46 Z M93.8309905,46 L101.44699,26.4 L105.938365,26.4 L98.6023655,46 L93.8309905,46 Z M97.4149905,42.276 L97.4149905,38.3 L110.328678,38.3 L110.328678,42.276 L97.4149905,42.276 Z" id="Shape" fill-rule="nonzero"></path>
            <polygon id="Path" fill-rule="nonzero" points="115.507136 46 115.507136 26.4 120.233448 26.4 128.846511 38.367375 128.846511 26.4 133.348823 26.4 133.348823 46 128.846511 46 120.009448 33.7136875 120.009448 46"></polygon>
            <polygon id="Path" fill-rule="nonzero" points="140.901361 46 140.901361 30.532625 135.189361 30.532625 135.189361 26.4 151.093361 26.4 151.093361 30.532625 145.404111 30.532625 145.404111 46"></polygon>
        </g>
    </g>
</svg>